<svg version="1.1" id="Capa_1"
    xmlns="http://www.w3.org/2000/svg"
    xmlns:xlink="http://www.w3.org/1999/xlink" x="0px" y="0px" viewBox="0 0 512 512" style="enable-background:new 0 0 512 512;" xml:space="preserve">
    <g>
        <path d="M510.394,203.263L422.222,91.044c-1.424-1.813-3.602-2.872-5.909-2.872H353.19c-4.151,0-7.515,3.364-7.515,7.515
            s3.364,7.515,7.515,7.515h59.47l82.268,104.705L412.66,312.61H296.077c-2.513,0-4.859,1.255-6.252,3.347l-57.872,86.81
            l-57.872-86.81c-1.394-2.091-3.739-3.347-6.252-3.347H15.029V103.201h301.088c4.151,0,7.515-3.364,7.515-7.515
            s-3.364-7.515-7.515-7.515H7.515C3.365,88.172,0,91.536,0,95.687v224.438c0,4.151,3.365,7.515,7.515,7.515h156.291l61.894,92.841
            c2.922,4.385,9.583,4.386,12.504,0l61.895-92.841h116.214c2.307,0,4.485-1.059,5.909-2.872l88.172-112.219
            C512.535,209.824,512.535,205.988,510.394,203.263z"/>
    </g>
    <g>
        <path d="M151.796,344.673H71.64c-4.15,0-7.515,3.364-7.515,7.515s3.365,7.515,7.515,7.515h80.157c4.15,0,7.515-3.364,7.515-7.515
            S155.947,344.673,151.796,344.673z"/>
    </g>
    <g>
        <path d="M167.828,376.736H87.671c-4.15,0-7.515,3.364-7.515,7.515s3.365,7.515,7.515,7.515h80.157c4.15,0,7.515-3.364,7.515-7.515
            S171.978,376.736,167.828,376.736z"/>
    </g>
    <g>
        <path d="M191.875,408.798h-88.172c-4.15,0-7.515,3.364-7.515,7.515s3.365,7.515,7.515,7.515h88.172
            c4.15,0,7.515-3.364,7.515-7.515S196.025,408.798,191.875,408.798z"/>
    </g>
    <g>
        <path d="M79.656,168.329H47.593c-4.15,0-7.515,3.364-7.515,7.515v64.125c0,4.151,3.365,7.515,7.515,7.515s7.515-3.364,7.515-7.515
            v-24.548H71.64c4.15,0,7.515-3.364,7.515-7.515s-3.365-7.515-7.515-7.515H55.108v-17.033h24.548c4.15,0,7.515-3.364,7.515-7.515
            S83.806,168.329,79.656,168.329z"/>
    </g>
    <g>
        <path d="M127.75,168.329c-17.403,0-31.562,17.755-31.562,39.577s14.159,39.577,31.562,39.577s31.562-17.755,31.562-39.577
            S145.153,168.329,127.75,168.329z M127.75,232.454c-8.961,0-16.532-11.242-16.532-24.548s7.571-24.548,16.532-24.548
            s16.532,11.242,16.532,24.548S136.711,232.454,127.75,232.454z"/>
    </g>
    <g>
        <path d="M320.125,168.329c-17.403,0-31.562,17.755-31.562,39.577s14.159,39.577,31.562,39.577s31.562-17.755,31.562-39.577
            S337.528,168.329,320.125,168.329z M320.125,232.454c-8.961,0-16.532-11.242-16.532-24.548s7.571-24.548,16.532-24.548
            s16.532,11.242,16.532,24.548S329.087,232.454,320.125,232.454z"/>
    </g>
    <g>
        <path d="M215.922,232.454h-24.548v-56.611c0-4.151-3.365-7.515-7.515-7.515c-4.15,0-7.515,3.364-7.515,7.515v64.125
            c0,4.151,3.365,7.515,7.515,7.515h32.063c4.15,0,7.515-3.364,7.515-7.515S220.072,232.454,215.922,232.454z"/>
    </g>
    <g>
        <path d="M272.031,232.454h-24.548v-56.611c0-4.151-3.365-7.515-7.515-7.515s-7.515,3.364-7.515,7.515v64.125
            c0,4.151,3.365,7.515,7.515,7.515h32.063c4.151,0,7.515-3.364,7.515-7.515S276.182,232.454,272.031,232.454z"/>
    </g>
    <g>
        <path d="M433.277,168.386c-4.122-0.505-7.874,2.406-8.389,6.525l-5.315,42.524l-12.846-21.411
            c-1.469-2.448-4.203-3.859-7.044-3.624c-2.847,0.228-5.317,2.049-6.377,4.699l-7.4,18.5L375.51,174.02
            c-1.008-4.026-5.089-6.469-9.114-5.468c-4.027,1.007-6.474,5.087-5.468,9.114l16.031,64.125c0.791,3.162,3.529,5.455,6.781,5.674
            c3.241,0.215,6.276-1.679,7.487-4.706l10.404-26.012l16.253,27.087c1.736,2.894,5.298,4.291,8.542,3.35
            c2.851-0.828,4.991-3.339,5.359-6.283l8.016-64.125C440.317,172.657,437.395,168.901,433.277,168.386z"/>
    </g>
</svg>
